<?xml version="1.0" encoding="UTF-8" standalone="no"?>
<!-- Created with Inkscape (http://www.inkscape.org/) -->

<svg
   xmlns:dc="http://purl.org/dc/elements/1.1/"
   xmlns:cc="http://creativecommons.org/ns#"
   xmlns:rdf="http://www.w3.org/1999/02/22-rdf-syntax-ns#"
   xmlns:svg="http://www.w3.org/2000/svg"
   xmlns="http://www.w3.org/2000/svg"
   xmlns:sodipodi="http://sodipodi.sourceforge.net/DTD/sodipodi-0.dtd"
   xmlns:inkscape="http://www.inkscape.org/namespaces/inkscape"
   width="56.803486mm"
   height="25.441517mm"
   viewBox="0 0 201.2722 90.147107"
   id="svg2"
   version="1.1"
   inkscape:version="0.91 r13725"
   sodipodi:docname="icon2.svg">
  <defs
     id="defs4" />
  <sodipodi:namedview
     id="base"
     pagecolor="#ffffff"
     bordercolor="#666666"
     borderopacity="1.0"
     inkscape:pageopacity="0.0"
     inkscape:pageshadow="2"
     inkscape:zoom="2.8"
     inkscape:cx="190.05927"
     inkscape:cy="81.976376"
     inkscape:document-units="px"
     inkscape:current-layer="layer1"
     showgrid="false"
     inkscape:window-width="1920"
     inkscape:window-height="1028"
     inkscape:window-x="-8"
     inkscape:window-y="-8"
     inkscape:window-maximized="1"
     fit-margin-top="0"
     fit-margin-left="0"
     fit-margin-right="0"
     fit-margin-bottom="0" />
  <metadata
     id="metadata7">
    <rdf:RDF>
      <cc:Work
         rdf:about="">
        <dc:format>image/svg+xml</dc:format>
        <dc:type
           rdf:resource="http://purl.org/dc/dcmitype/StillImage" />
        <dc:title></dc:title>
      </cc:Work>
    </rdf:RDF>
  </metadata>
  <g
     inkscape:label="Ebene 1"
     inkscape:groupmode="layer"
     id="layer1"
     transform="translate(-73.377984,-476.48509)">
    <ellipse
       style="fill:#999999;fill-rule:evenodd;stroke:#000000;stroke-width:0;stroke-linecap:butt;stroke-linejoin:miter;stroke-miterlimit:4;stroke-dasharray:none;stroke-opacity:1"
       id="path3342"
       cx="104.49477"
       cy="486.97263"
       rx="9.1220112"
       ry="9.2699442" />
    <ellipse
       style="fill:#999999;fill-rule:evenodd;stroke:#000000;stroke-width:0;stroke-linecap:butt;stroke-linejoin:miter;stroke-miterlimit:4;stroke-dasharray:none;stroke-opacity:1"
       id="path3342-7"
       cx="177.14285"
       cy="557.36224"
       rx="9.1220112"
       ry="9.2699442" />
    <ellipse
       style="fill:#999999;fill-rule:evenodd;stroke:#000000;stroke-width:0;stroke-linecap:butt;stroke-linejoin:miter;stroke-miterlimit:4;stroke-dasharray:none;stroke-opacity:1"
       id="path3342-3"
       cx="158.92856"
       cy="485.75504"
       rx="9.1220112"
       ry="9.2699442" />
    <ellipse
       style="fill:#999999;fill-rule:evenodd;stroke:#000000;stroke-width:0;stroke-linecap:butt;stroke-linejoin:miter;stroke-miterlimit:4;stroke-dasharray:none;stroke-opacity:1"
       id="path3342-2"
       cx="82.5"
       cy="545.93359"
       rx="9.1220112"
       ry="9.2699442" />
    <ellipse
       style="fill:#ff6600;fill-rule:evenodd;stroke:#000000;stroke-width:0;stroke-linecap:butt;stroke-linejoin:miter;stroke-miterlimit:4;stroke-dasharray:none;stroke-opacity:1"
       id="path3342-7-9"
       cx="141.01965"
       cy="521.70544"
       rx="12.336295"
       ry="12.0378"
       transform="matrix(0.99999946,-0.00103843,0.00112623,0.99999937,0,0)" />
    <path
       style="fill:none;fill-rule:evenodd;stroke:#000000;stroke-width:1px;stroke-linecap:round;stroke-linejoin:miter;stroke-opacity:1"
       d="m 147.14286,508.79078 6.78571,-13.75001"
       id="path5638"
       inkscape:connector-type="polyline"
       inkscape:connector-curvature="0" />
    <path
       style="fill:none;fill-rule:evenodd;stroke:#000000;stroke-width:1px;stroke-linecap:round;stroke-linejoin:miter;stroke-opacity:1"
       d="m 150.35714,531.64792 18.03572,18.03571"
       id="path5640"
       inkscape:connector-type="polyline"
       inkscape:connector-curvature="0" />
    <path
       style="fill:none;fill-rule:evenodd;stroke:#000000;stroke-width:1px;stroke-linecap:round;stroke-linejoin:miter;stroke-opacity:1"
       d="M 128.39286,527.71935 92.321429,541.29078"
       id="path5642"
       inkscape:connector-type="polyline"
       inkscape:connector-curvature="0" />
    <path
       style="fill:#4d4d4d;fill-rule:evenodd;stroke:#000000;stroke-width:1px;stroke-linecap:round;stroke-linejoin:round;stroke-opacity:1"
       d="m 110.71429,494.68363 20,17.32143"
       id="path5644"
       inkscape:connector-type="polyline"
       inkscape:connector-curvature="0" />
    <path
       style="fill:#2f598b;fill-opacity:1;stroke:#000000;stroke-width:0;stroke-linecap:round;stroke-linejoin:round;stroke-miterlimit:4;stroke-dasharray:none;stroke-opacity:1"
       d="m 80.309359,554.85992 c -1.355368,-0.31788 -3.024312,-1.28995 -4.124335,-2.40222 -1.313874,-1.32849 -2.139037,-2.90111 -2.540079,-4.84095 -1.401109,-6.77715 5.338639,-12.64586 11.874514,-10.33987 2.70385,0.95397 5.055069,3.58767 5.744565,6.43474 0.300486,1.24076 0.255231,3.57665 -0.09185,4.74101 -0.922114,3.09342 -3.404844,5.56401 -6.390149,6.35891 -1.024857,0.27289 -3.405616,0.29864 -4.472663,0.0484 z"
       id="path5650"
       inkscape:connector-curvature="0" />
    <path
       style="fill:#2f598b;fill-opacity:1;stroke:#000000;stroke-width:0;stroke-linecap:round;stroke-linejoin:round;stroke-miterlimit:4;stroke-dasharray:none;stroke-opacity:1"
       d="m 157.59781,494.82433 c -0.77818,-0.0969 -1.63864,-0.38114 -2.61085,-0.86247 -4.52739,-2.24145 -6.35809,-7.70379 -4.12354,-12.30359 1.50373,-3.0954 4.60606,-5.02707 8.07367,-5.02707 7.93689,0 11.97169,9.58785 6.49745,15.43983 -2.03229,2.17253 -4.7716,3.13493 -7.83673,2.7533 z"
       id="path5652"
       inkscape:connector-curvature="0" />
    <path
       style="fill:#33ccff;fill-opacity:1;stroke:#000000;stroke-width:0;stroke-linecap:round;stroke-linejoin:round;stroke-miterlimit:4;stroke-dasharray:none;stroke-opacity:1"
       d="m 101.66418,495.6768 c -6.422184,-2.18869 -8.286173,-10.39458 -3.457908,-15.22284 2.008398,-2.0084 4.612468,-2.90457 7.437128,-2.55942 2.17766,0.26609 3.88546,1.17104 5.45404,2.89007 2.62141,2.87281 3.14908,6.8459 1.39003,10.46606 -0.60406,1.24317 -2.52153,3.20569 -3.73004,3.81769 -2.22943,1.12898 -4.89496,1.35762 -7.09325,0.60844 z"
       id="path5654"
       inkscape:connector-curvature="0" />
    <path
       style="fill:#33ccff;fill-opacity:1;stroke:#000000;stroke-width:0;stroke-linecap:round;stroke-linejoin:round;stroke-miterlimit:4;stroke-dasharray:none;stroke-opacity:1"
       d="m 175.81209,566.43147 c -0.77817,-0.0969 -1.63864,-0.38114 -2.61084,-0.86246 -4.52739,-2.24145 -6.35809,-7.7038 -4.12354,-12.3036 1.50372,-3.0954 4.60606,-5.02706 8.07367,-5.02706 7.93689,0 11.97169,9.58784 6.49745,15.43982 -2.0323,2.17253 -4.7716,3.13494 -7.83674,2.7533 z"
       id="path5656"
       inkscape:connector-curvature="0" />
    <path
       style="fill:#df2926;fill-opacity:1;stroke:#000000;stroke-width:0;stroke-linecap:round;stroke-linejoin:round;stroke-miterlimit:4;stroke-dasharray:none;stroke-opacity:1"
       d="m 174.93792,566.17004 c -4.32797,-1.16386 -7.30752,-5.70851 -6.6343,-10.11919 0.5145,-3.3708 2.96581,-6.29911 6.12488,-7.3167 1.50836,-0.48588 3.91376,-0.48414 5.44576,0.004 4.08985,1.30297 6.72146,5.55927 6.11394,9.88854 -0.50617,3.60712 -3.31886,6.73051 -6.79987,7.55104 -1.41888,0.33446 -2.9888,0.33164 -4.25041,-0.008 l 0,-10e-6 z"
       id="path5658"
       inkscape:connector-curvature="0" />
    <path
       style="fill:#4d4d4d;fill-opacity:1;stroke:#000000;stroke-width:0;stroke-linecap:round;stroke-linejoin:round;stroke-miterlimit:4;stroke-dasharray:none;stroke-opacity:1"
       d="m 139.94803,533.41007 c -8.32876,-1.12985 -13.01354,-9.97771 -9.19617,-17.36824 0.98657,-1.91003 3.24287,-4.0982 5.2388,-5.08063 2.17265,-1.0694 3.544,-1.34691 6.16072,-1.24667 3.513,0.13457 5.6865,1.09139 8.23392,3.62474 1.13445,1.12818 1.60908,1.76654 2.19072,2.94643 1.69308,3.43453 1.69245,7.06907 -0.002,10.52408 -0.96408,1.96596 -3.1707,4.23731 -5.07372,5.22255 -2.27418,1.17739 -5.15515,1.70295 -7.55244,1.37774 l 1e-5,0 z"
       id="path5660"
       inkscape:connector-curvature="0" />
    <text
       xml:space="preserve"
       style="font-style:normal;font-weight:normal;font-size:25px;line-height:125%;font-family:sans-serif;letter-spacing:0px;word-spacing:0px;fill:#000000;fill-opacity:1;stroke:none;stroke-width:1px;stroke-linecap:butt;stroke-linejoin:miter;stroke-opacity:1"
       x="204.64285"
       y="523.07648"
       id="text5662"
       sodipodi:linespacing="125%"><tspan
         sodipodi:role="line"
         id="tspan5664"
         x="204.64285"
         y="523.07648"
         style="font-style:normal;font-variant:normal;font-weight:normal;font-stretch:normal;font-size:25px;font-family:'Adobe Devanagari';-inkscape-font-specification:'Adobe Devanagari'">LinxUp</tspan></text>
    <ellipse
       ry="9.2699442"
       rx="9.1220112"
       cy="486.97263"
       cx="104.49477"
       id="ellipse5666"
       style="fill:#999999;fill-rule:evenodd;stroke:#000000;stroke-width:0;stroke-linecap:butt;stroke-linejoin:miter;stroke-miterlimit:4;stroke-dasharray:none;stroke-opacity:1" />
    <ellipse
       ry="9.2699442"
       rx="9.1220112"
       cy="557.36224"
       cx="177.14285"
       id="ellipse5668"
       style="fill:#999999;fill-rule:evenodd;stroke:#000000;stroke-width:0;stroke-linecap:butt;stroke-linejoin:miter;stroke-miterlimit:4;stroke-dasharray:none;stroke-opacity:1" />
    <ellipse
       ry="9.2699442"
       rx="9.1220112"
       cy="485.75504"
       cx="158.92856"
       id="ellipse5670"
       style="fill:#999999;fill-rule:evenodd;stroke:#000000;stroke-width:0;stroke-linecap:butt;stroke-linejoin:miter;stroke-miterlimit:4;stroke-dasharray:none;stroke-opacity:1" />
    <ellipse
       ry="9.2699442"
       rx="9.1220112"
       cy="545.93359"
       cx="82.5"
       id="ellipse5672"
       style="fill:#999999;fill-rule:evenodd;stroke:#000000;stroke-width:0;stroke-linecap:butt;stroke-linejoin:miter;stroke-miterlimit:4;stroke-dasharray:none;stroke-opacity:1" />
    <ellipse
       transform="matrix(0.99999946,-0.00103843,0.00112623,0.99999937,0,0)"
       ry="12.0378"
       rx="12.336295"
       cy="521.70544"
       cx="141.01965"
       id="ellipse5674"
       style="fill:#ff6600;fill-rule:evenodd;stroke:#000000;stroke-width:0;stroke-linecap:butt;stroke-linejoin:miter;stroke-miterlimit:4;stroke-dasharray:none;stroke-opacity:1" />
    <path
       inkscape:connector-curvature="0"
       inkscape:connector-type="polyline"
       id="path5676"
       d="m 147.14286,508.79078 6.78571,-13.75001"
       style="fill:none;fill-rule:evenodd;stroke:#000000;stroke-width:1px;stroke-linecap:round;stroke-linejoin:miter;stroke-opacity:1" />
    <path
       inkscape:connector-curvature="0"
       inkscape:connector-type="polyline"
       id="path5678"
       d="m 150.35714,531.64792 18.03572,18.03571"
       style="fill:none;fill-rule:evenodd;stroke:#000000;stroke-width:1px;stroke-linecap:round;stroke-linejoin:miter;stroke-opacity:1" />
    <path
       inkscape:connector-curvature="0"
       inkscape:connector-type="polyline"
       id="path5680"
       d="M 128.39286,527.71935 92.321429,541.29078"
       style="fill:none;fill-rule:evenodd;stroke:#000000;stroke-width:1px;stroke-linecap:round;stroke-linejoin:miter;stroke-opacity:1" />
    <path
       inkscape:connector-curvature="0"
       inkscape:connector-type="polyline"
       id="path5682"
       d="m 110.71429,494.68363 20,17.32143"
       style="fill:#4d4d4d;fill-rule:evenodd;stroke:#000000;stroke-width:1px;stroke-linecap:round;stroke-linejoin:round;stroke-opacity:1" />
    <path
       inkscape:connector-curvature="0"
       id="path5684"
       d="m 80.309359,554.85992 c -1.355368,-0.31788 -3.024312,-1.28995 -4.124335,-2.40222 -1.313874,-1.32849 -2.139037,-2.90111 -2.540079,-4.84095 -1.401109,-6.77715 5.338639,-12.64586 11.874514,-10.33987 2.70385,0.95397 5.055069,3.58767 5.744565,6.43474 0.300486,1.24076 0.255231,3.57665 -0.09185,4.74101 -0.922114,3.09342 -3.404844,5.56401 -6.390149,6.35891 -1.024857,0.27289 -3.405616,0.29864 -4.472663,0.0484 z"
       style="fill:#2f598b;fill-opacity:1;stroke:#000000;stroke-width:0;stroke-linecap:round;stroke-linejoin:round;stroke-miterlimit:4;stroke-dasharray:none;stroke-opacity:1" />
    <path
       inkscape:connector-curvature="0"
       id="path5686"
       d="m 157.59781,494.82433 c -0.77818,-0.0969 -1.63864,-0.38114 -2.61085,-0.86247 -4.52739,-2.24145 -6.35809,-7.70379 -4.12354,-12.30359 1.50373,-3.0954 4.60606,-5.02707 8.07367,-5.02707 7.93689,0 11.97169,9.58785 6.49745,15.43983 -2.03229,2.17253 -4.7716,3.13493 -7.83673,2.7533 z"
       style="fill:#2f598b;fill-opacity:1;stroke:#000000;stroke-width:0;stroke-linecap:round;stroke-linejoin:round;stroke-miterlimit:4;stroke-dasharray:none;stroke-opacity:1" />
    <path
       inkscape:connector-curvature="0"
       id="path5688"
       d="m 101.66418,495.6768 c -6.422184,-2.18869 -8.286173,-10.39458 -3.457908,-15.22284 2.008398,-2.0084 4.612468,-2.90457 7.437128,-2.55942 2.17766,0.26609 3.88546,1.17104 5.45404,2.89007 2.62141,2.87281 3.14908,6.8459 1.39003,10.46606 -0.60406,1.24317 -2.52153,3.20569 -3.73004,3.81769 -2.22943,1.12898 -4.89496,1.35762 -7.09325,0.60844 z"
       style="fill:#33ccff;fill-opacity:1;stroke:#000000;stroke-width:0;stroke-linecap:round;stroke-linejoin:round;stroke-miterlimit:4;stroke-dasharray:none;stroke-opacity:1" />
    <path
       inkscape:connector-curvature="0"
       id="path5690"
       d="m 175.81209,566.43147 c -0.77817,-0.0969 -1.63864,-0.38114 -2.61084,-0.86246 -4.52739,-2.24145 -6.35809,-7.7038 -4.12354,-12.3036 1.50372,-3.0954 4.60606,-5.02706 8.07367,-5.02706 7.93689,0 11.97169,9.58784 6.49745,15.43982 -2.0323,2.17253 -4.7716,3.13494 -7.83674,2.7533 z"
       style="fill:#33ccff;fill-opacity:1;stroke:#000000;stroke-width:0;stroke-linecap:round;stroke-linejoin:round;stroke-miterlimit:4;stroke-dasharray:none;stroke-opacity:1" />
    <path
       inkscape:connector-curvature="0"
       id="path5692"
       d="m 174.93792,566.17004 c -4.32797,-1.16386 -7.30752,-5.70851 -6.6343,-10.11919 0.5145,-3.3708 2.96581,-6.29911 6.12488,-7.3167 1.50836,-0.48588 3.91376,-0.48414 5.44576,0.004 4.08985,1.30297 6.72146,5.55927 6.11394,9.88854 -0.50617,3.60712 -3.31886,6.73051 -6.79987,7.55104 -1.41888,0.33446 -2.9888,0.33164 -4.25041,-0.008 l 0,-10e-6 z"
       style="fill:#df2926;fill-opacity:1;stroke:#000000;stroke-width:0;stroke-linecap:round;stroke-linejoin:round;stroke-miterlimit:4;stroke-dasharray:none;stroke-opacity:1" />
    <path
       inkscape:connector-curvature="0"
       id="path5694"
       d="m 139.94803,533.41007 c -8.32876,-1.12985 -13.01354,-9.97771 -9.19617,-17.36824 0.98657,-1.91003 3.24287,-4.0982 5.2388,-5.08063 2.17265,-1.0694 3.544,-1.34691 6.16072,-1.24667 3.513,0.13457 5.6865,1.09139 8.23392,3.62474 1.13445,1.12818 1.60908,1.76654 2.19072,2.94643 1.69308,3.43453 1.69245,7.06907 -0.002,10.52408 -0.96408,1.96596 -3.1707,4.23731 -5.07372,5.22255 -2.27418,1.17739 -5.15515,1.70295 -7.55244,1.37774 l 1e-5,0 z"
       style="fill:#4d4d4d;fill-opacity:1;stroke:#000000;stroke-width:0;stroke-linecap:round;stroke-linejoin:round;stroke-miterlimit:4;stroke-dasharray:none;stroke-opacity:1" />
    <ellipse
       style="fill:#999999;fill-rule:evenodd;stroke:#000000;stroke-width:0;stroke-linecap:butt;stroke-linejoin:miter;stroke-miterlimit:4;stroke-dasharray:none;stroke-opacity:1"
       id="ellipse5696"
       cx="104.49477"
       cy="486.97263"
       rx="9.1220112"
       ry="9.2699442" />
    <ellipse
       style="fill:#999999;fill-rule:evenodd;stroke:#000000;stroke-width:0;stroke-linecap:butt;stroke-linejoin:miter;stroke-miterlimit:4;stroke-dasharray:none;stroke-opacity:1"
       id="ellipse5698"
       cx="177.14285"
       cy="557.36224"
       rx="9.1220112"
       ry="9.2699442" />
    <ellipse
       style="fill:#999999;fill-rule:evenodd;stroke:#000000;stroke-width:0;stroke-linecap:butt;stroke-linejoin:miter;stroke-miterlimit:4;stroke-dasharray:none;stroke-opacity:1"
       id="ellipse5700"
       cx="158.92856"
       cy="485.75504"
       rx="9.1220112"
       ry="9.2699442" />
    <ellipse
       style="fill:#999999;fill-rule:evenodd;stroke:#000000;stroke-width:0;stroke-linecap:butt;stroke-linejoin:miter;stroke-miterlimit:4;stroke-dasharray:none;stroke-opacity:1"
       id="ellipse5702"
       cx="82.5"
       cy="545.93359"
       rx="9.1220112"
       ry="9.2699442" />
    <ellipse
       style="fill:#ff6600;fill-rule:evenodd;stroke:#000000;stroke-width:0;stroke-linecap:butt;stroke-linejoin:miter;stroke-miterlimit:4;stroke-dasharray:none;stroke-opacity:1"
       id="ellipse5704"
       cx="141.01965"
       cy="521.70544"
       rx="12.336295"
       ry="12.0378"
       transform="matrix(0.99999946,-0.00103843,0.00112623,0.99999937,0,0)" />
    <path
       style="fill:none;fill-rule:evenodd;stroke:#000000;stroke-width:1px;stroke-linecap:round;stroke-linejoin:miter;stroke-opacity:1"
       d="m 147.14286,508.79078 6.78571,-13.75001"
       id="path5706"
       inkscape:connector-type="polyline"
       inkscape:connector-curvature="0" />
    <path
       style="fill:none;fill-rule:evenodd;stroke:#000000;stroke-width:1px;stroke-linecap:round;stroke-linejoin:miter;stroke-opacity:1"
       d="m 150.35714,531.64792 18.03572,18.03571"
       id="path5708"
       inkscape:connector-type="polyline"
       inkscape:connector-curvature="0" />
    <path
       style="fill:none;fill-rule:evenodd;stroke:#000000;stroke-width:1px;stroke-linecap:round;stroke-linejoin:miter;stroke-opacity:1"
       d="M 128.39286,527.71935 92.321429,541.29078"
       id="path5710"
       inkscape:connector-type="polyline"
       inkscape:connector-curvature="0" />
    <path
       style="fill:#4d4d4d;fill-rule:evenodd;stroke:#000000;stroke-width:1px;stroke-linecap:round;stroke-linejoin:round;stroke-opacity:1"
       d="m 110.71429,494.68363 20,17.32143"
       id="path5712"
       inkscape:connector-type="polyline"
       inkscape:connector-curvature="0" />
    <path
       style="fill:#2f598b;fill-opacity:1;stroke:#000000;stroke-width:0;stroke-linecap:round;stroke-linejoin:round;stroke-miterlimit:4;stroke-dasharray:none;stroke-opacity:1"
       d="m 80.309359,554.85992 c -1.355368,-0.31788 -3.024312,-1.28995 -4.124335,-2.40222 -1.313874,-1.32849 -2.139037,-2.90111 -2.540079,-4.84095 -1.401109,-6.77715 5.338639,-12.64586 11.874514,-10.33987 2.70385,0.95397 5.055069,3.58767 5.744565,6.43474 0.300486,1.24076 0.255231,3.57665 -0.09185,4.74101 -0.922114,3.09342 -3.404844,5.56401 -6.390149,6.35891 -1.024857,0.27289 -3.405616,0.29864 -4.472663,0.0484 z"
       id="path5714"
       inkscape:connector-curvature="0" />
    <path
       style="fill:#2f598b;fill-opacity:1;stroke:#000000;stroke-width:0;stroke-linecap:round;stroke-linejoin:round;stroke-miterlimit:4;stroke-dasharray:none;stroke-opacity:1"
       d="m 157.59781,494.82433 c -0.77818,-0.0969 -1.63864,-0.38114 -2.61085,-0.86247 -4.52739,-2.24145 -6.35809,-7.70379 -4.12354,-12.30359 1.50373,-3.0954 4.60606,-5.02707 8.07367,-5.02707 7.93689,0 11.97169,9.58785 6.49745,15.43983 -2.03229,2.17253 -4.7716,3.13493 -7.83673,2.7533 z"
       id="path5716"
       inkscape:connector-curvature="0" />
    <path
       style="fill:#33ccff;fill-opacity:1;stroke:#000000;stroke-width:0;stroke-linecap:round;stroke-linejoin:round;stroke-miterlimit:4;stroke-dasharray:none;stroke-opacity:1"
       d="m 101.66418,495.6768 c -6.422184,-2.18869 -8.286173,-10.39458 -3.457908,-15.22284 2.008398,-2.0084 4.612468,-2.90457 7.437128,-2.55942 2.17766,0.26609 3.88546,1.17104 5.45404,2.89007 2.62141,2.87281 3.14908,6.8459 1.39003,10.46606 -0.60406,1.24317 -2.52153,3.20569 -3.73004,3.81769 -2.22943,1.12898 -4.89496,1.35762 -7.09325,0.60844 z"
       id="path5718"
       inkscape:connector-curvature="0" />
    <path
       style="fill:#33ccff;fill-opacity:1;stroke:#000000;stroke-width:0;stroke-linecap:round;stroke-linejoin:round;stroke-miterlimit:4;stroke-dasharray:none;stroke-opacity:1"
       d="m 175.81209,566.43147 c -0.77817,-0.0969 -1.63864,-0.38114 -2.61084,-0.86246 -4.52739,-2.24145 -6.35809,-7.7038 -4.12354,-12.3036 1.50372,-3.0954 4.60606,-5.02706 8.07367,-5.02706 7.93689,0 11.97169,9.58784 6.49745,15.43982 -2.0323,2.17253 -4.7716,3.13494 -7.83674,2.7533 z"
       id="path5720"
       inkscape:connector-curvature="0" />
    <path
       style="fill:#df2926;fill-opacity:1;stroke:#000000;stroke-width:0;stroke-linecap:round;stroke-linejoin:round;stroke-miterlimit:4;stroke-dasharray:none;stroke-opacity:1"
       d="m 174.93792,566.17004 c -4.32797,-1.16386 -7.30752,-5.70851 -6.6343,-10.11919 0.5145,-3.3708 2.96581,-6.29911 6.12488,-7.3167 1.50836,-0.48588 3.91376,-0.48414 5.44576,0.004 4.08985,1.30297 6.72146,5.55927 6.11394,9.88854 -0.50617,3.60712 -3.31886,6.73051 -6.79987,7.55104 -1.41888,0.33446 -2.9888,0.33164 -4.25041,-0.008 l 0,-10e-6 z"
       id="path5722"
       inkscape:connector-curvature="0" />
    <path
       style="fill:#4d4d4d;fill-opacity:1;stroke:#000000;stroke-width:0;stroke-linecap:round;stroke-linejoin:round;stroke-miterlimit:4;stroke-dasharray:none;stroke-opacity:1"
       d="m 139.94803,533.41007 c -8.32876,-1.12985 -13.01354,-9.97771 -9.19617,-17.36824 0.98657,-1.91003 3.24287,-4.0982 5.2388,-5.08063 2.17265,-1.0694 3.544,-1.34691 6.16072,-1.24667 3.513,0.13457 5.6865,1.09139 8.23392,3.62474 1.13445,1.12818 1.60908,1.76654 2.19072,2.94643 1.69308,3.43453 1.69245,7.06907 -0.002,10.52408 -0.96408,1.96596 -3.1707,4.23731 -5.07372,5.22255 -2.27418,1.17739 -5.15515,1.70295 -7.55244,1.37774 l 1e-5,0 z"
       id="path5724"
       inkscape:connector-curvature="0" />
  </g>
</svg>
